<?xml version="1.0" encoding="UTF-8"?>
<svg width="24px" height="24px" viewBox="0 0 24 24" version="1.1" xmlns="http://www.w3.org/2000/svg" xmlns:xlink="http://www.w3.org/1999/xlink">
    <title>pack_check</title>
    <g id="pack_check" stroke="none" stroke-width="1" fill="none" fill-rule="evenodd">
        <path d="M8.42738854,10.0002825 C9.45778372,12.9121914 12.2365569,15 15.5,15 C16.7642632,15 17.9557872,14.6866616 19.0010984,14.1334584 L19,19.0006212 C19,19.552906 18.5522847,20.0006212 18,20.0006212 L6,20.0006212 C5.44771525,20.0006212 5,19.552906 5,19.0006212 L5,10 L8.42738854,10.0002825 Z M15.5,2 C18.536,2 21,4.464 21,7.5 C21,10.536 18.536,13 15.5,13 C12.464,13 10,10.536 10,7.5 C10,4.464 12.464,2 15.5,2 Z M18.02,4.665 L14.31,8.375 L12.98,7.045 L12,8.025 L14.31,10.335 L19,5.645 L18.02,4.665 Z M8.866088,3.99975893 C8.31316711,5.04486421 8,6.23608235 8,7.5 C8,7.668127 8.00554132,7.83496762 8.01645118,8.00034907 L5,8 L5,5.0006212 C5,4.44833645 5.44771525,4.0006212 6,4.0006212 L8.866088,3.99975893 Z" id="Combined-Shape" fill="#000000"></path>
    </g>
</svg>