<?xml version="1.0" encoding="UTF-8"?>
<svg width="24px" height="24px" viewBox="0 0 24 24" version="1.1" xmlns="http://www.w3.org/2000/svg" xmlns:xlink="http://www.w3.org/1999/xlink">
    <title>searchIcon_24</title>
    <g id="searchIcon_24" stroke="none" stroke-width="1" fill="none" fill-rule="evenodd">
        <path d="M15.9497475,5.05025253 C18.4740769,7.57458197 18.6673865,11.5472214 16.5296763,14.29337 L20.6340328,18.8513137 L18.4045983,20.8587055 L14.2238268,16.215564 C11.5872176,17.5839777 8.26254386,17.1620388 6.05025253,14.9497475 C3.31658249,12.2160774 3.31658249,7.78392257 6.05025253,5.05025253 C8.78392257,2.31658249 13.2160774,2.31658249 15.9497475,5.05025253 Z M8.17157288,7.17157288 C6.60947571,8.73367004 6.60947571,11.26633 8.17157288,12.8284271 C9.53633693,14.1931912 11.641938,14.365596 13.1938757,13.3456417 L14.097035,12.5319478 C15.3847033,10.9607384 15.2951674,8.63831311 13.8284271,7.17157288 C12.26633,5.60947571 9.73367004,5.60947571 8.17157288,7.17157288 Z" id="Combined-Shape" fill="#000000"></path>
    </g>
</svg>